<svg xmlns="http://www.w3.org/2000/svg" width="640" height="480" viewBox="0 0 640 480">
  <rect width="100%" height="100%" fill="white"/>
  <text x="320.0" y="24" text-anchor="middle" font-size="18">NFL Player-Prop Reliability</text>
  <line x1="80" y1="400" x2="440" y2="40" stroke="#9ca3af" stroke-dasharray="6 4"/>
  <line x1="80" y1="40" x2="80" y2="400" stroke="black"/>
  <line x1="80" y1="400" x2="440" y2="400" stroke="black"/>
  <polyline points="99.690,242.981 133.493,229.560 170.074,221.761 205.807,219.952 242.141,222.588 277.859,217.412 314.193,220.048 349.926,218.239 386.507,210.440 420.310,197.019" fill="none" stroke="#2563eb" stroke-width="2"/>
  <circle cx="99.690" cy="242.981" r="5" fill="#2563eb"><title>n=3086</title></circle>
  <circle cx="133.493" cy="229.560" r="5" fill="#2563eb"><title>n=3935</title></circle>
  <circle cx="170.074" cy="221.761" r="5" fill="#2563eb"><title>n=3783</title></circle>
  <circle cx="205.807" cy="219.952" r="5" fill="#2563eb"><title>n=3735</title></circle>
  <circle cx="242.141" cy="222.588" r="5" fill="#2563eb"><title>n=3756</title></circle>
  <circle cx="277.859" cy="217.412" r="5" fill="#2563eb"><title>n=3756</title></circle>
  <circle cx="314.193" cy="220.048" r="5" fill="#2563eb"><title>n=3735</title></circle>
  <circle cx="349.926" cy="218.239" r="5" fill="#2563eb"><title>n=3783</title></circle>
  <circle cx="386.507" cy="210.440" r="5" fill="#2563eb"><title>n=3935</title></circle>
  <circle cx="420.310" cy="197.019" r="5" fill="#2563eb"><title>n=3086</title></circle>
  <text x="80.000" y="424" text-anchor="middle">0.0</text>
  <text x="66" y="405.000" text-anchor="end">0.0</text>
  <text x="152.000" y="424" text-anchor="middle">0.2</text>
  <text x="66" y="333.000" text-anchor="end">0.2</text>
  <text x="224.000" y="424" text-anchor="middle">0.4</text>
  <text x="66" y="261.000" text-anchor="end">0.4</text>
  <text x="296.000" y="424" text-anchor="middle">0.6</text>
  <text x="66" y="189.000" text-anchor="end">0.6</text>
  <text x="368.000" y="424" text-anchor="middle">0.8</text>
  <text x="66" y="117.000" text-anchor="end">0.8</text>
  <text x="440.000" y="424" text-anchor="middle">1.0</text>
  <text x="66" y="45.000" text-anchor="end">1.0</text>
  <text x="260.0" y="458" text-anchor="middle">Mean predicted probability</text>
  <text x="22" y="220.0" text-anchor="middle" transform="rotate(-90 22 220.0)">Observed win rate</text>
</svg>
